<?xml version="1.0" encoding="UTF-8"?>
<svg version="1.1" xmlns="http://www.w3.org/2000/svg" width="265" height="214">
<path d="M0 0 C87.45 0 174.9 0 265 0 C265 70.62 265 141.24 265 214 C177.55 214 90.1 214 0 214 C0 143.38 0 72.76 0 0 Z " fill="#151B58" transform="translate(0,0)"/>
<path d="M0 0 C29.37 0 58.74 0 89 0 C89 1.32 89 2.64 89 4 C80.09 4 71.18 4 62 4 C63.32 7.3 64.64 10.6 66 14 C66.99 16.475 66.99 16.475 68 19 C68.66 19 69.32 19 70 19 C70 14.71 70 10.42 70 6 C84.36988265 4.78421674 84.36988265 4.78421674 88.10546875 7.5703125 C89.41426622 9.68855087 90.25576111 11.62694113 91 14 C91.433125 15.155 91.86625 16.31 92.3125 17.5 C92.539375 18.325 92.76625 19.15 93 20 C93.66 20 94.32 20 95 20 C95 15.05 95 10.1 95 5 C93.35 5 91.7 5 90 5 C90 4.67 90 4.34 90 4 C95.60098008 3.950029 101.2018263 3.91401408 106.80297852 3.89013672 C108.70274114 3.88016759 110.60248878 3.8665874 112.50219727 3.84912109 C140.14407161 3.60160365 140.14407161 3.60160365 148 8 C148 7.01 148 6.02 148 5 C156.38011029 4.84607961 164.64895793 5.31728707 173 6 C173 8.64 173 11.28 173 14 C170.69 14 168.38 14 166 14 C166 21.92 166 29.84 166 38 C163.03 38 160.06 38 157 38 C156.01 38.495 156.01 38.495 155 39 C155 31.41 155 23.82 155 16 C153.68 16 152.36 16 151 16 C151 17.65 151 19.3 151 21 C147.7 21 144.4 21 141 21 C140.01 18.525 140.01 18.525 139 16 C138.01 16 137.02 16 136 16 C136 20.29 136 24.58 136 29 C136.99 29 137.98 29 139 29 C139.33 27.02 139.66 25.04 140 23 C141.45823212 22.9729957 142.91660675 22.95360213 144.375 22.9375 C145.18710938 22.92589844 145.99921875 22.91429687 146.8359375 22.90234375 C149 23 149 23 151 24 C150.24455376 32.91426564 150.24455376 32.91426564 147 37 C143.59882773 39.23129297 140.75472253 39.21205919 136.75 39.125 C135.67234375 39.10695312 134.5946875 39.08890625 133.484375 39.0703125 C132.66453125 39.04710937 131.8446875 39.02390625 131 39 C131.33 42.63 131.66 46.26 132 50 C131.34 50 130.68 50 130 50 C129.97313447 48.02090602 129.95366625 46.04171029 129.9375 44.0625 C129.92589844 42.96035156 129.91429687 41.85820312 129.90234375 40.72265625 C130 38 130 38 131 37 C130.01 36.071875 130.01 36.071875 129 35.125 C127 33 127 33 127 31 C126.34 31 125.68 31 125 31 C125.020625 31.969375 125.04125 32.93875 125.0625 33.9375 C125 37 125 37 124 38 C119.999872 38.45904317 115.99713841 38.61355665 111.97387695 38.73461914 C109.96791166 38.81133691 107.96496305 38.95692654 105.96289062 39.10351562 C101.97028565 39.2102267 98.83326168 39.14713988 95 38 C91.42721635 34.41309721 89.15141607 30.5605561 87 26 C86.67 29.96 86.34 33.92 86 38 C80.39 38 74.78 38 69 38 C65 30.25 65 30.25 65 28 C64.34 28 63.68 28 63 28 C62.34 26.68 61.68 25.36 61 24 C60.67 28.62 60.34 33.24 60 38 C57.36 38 54.72 38 52 38 C52 36.35 52 34.7 52 33 C51.52691406 33.3609375 51.05382812 33.721875 50.56640625 34.09375 C45.36632691 37.74292849 41.33525988 39.09228619 35 38 C30.39486893 36.15794757 28.51144595 33.18574325 26 29 C23.87961365 31.61514317 21.86908256 34.19637616 20 37 C15.87857829 38.37380724 12.28201602 39.00669913 8 38 C4.20944234 34.98159297 1.53280725 31.59842175 0 27 C-0.50521865 20.8110715 -0.78090481 15.21504112 3 10 C6.73733498 6.98936905 10.23443187 6.16432994 15 6 C19.57774829 7.29702868 21.44367756 8.08475985 23.9375 12.1875 C24.288125 13.115625 24.63875 14.04375 25 15 C25.38671875 14.51789063 25.7734375 14.03578125 26.171875 13.5390625 C26.69265625 12.90742187 27.2134375 12.27578125 27.75 11.625 C28.26046875 10.99851562 28.7709375 10.37203125 29.296875 9.7265625 C31.79328756 7.19579564 33.80112097 6.09924495 37.359375 5.8046875 C38.54273437 5.83949219 38.54273437 5.83949219 39.75 5.875 C40.54921875 5.89304687 41.3484375 5.91109375 42.171875 5.9296875 C42.77515625 5.95289062 43.3784375 5.97609375 44 6 C44 5.34 44 4.68 44 4 C29.48 4 14.96 4 0 4 C0 2.68 0 1.36 0 0 Z " fill="#736586" transform="translate(50,113)"/>
<path d="M0 0 C8.58 0 17.16 0 26 0 C26 19.47 26 38.94 26 59 C30.62 59 35.24 59 40 59 C40 67.25 40 75.5 40 84 C31.63768176 84.66236184 23.38763304 85.15405857 15 85 C15 85.99 15 86.98 15 88 C14.05125 87.690625 13.1025 87.38125 12.125 87.0625 C4.34634527 84.84861635 -3.9099228 84.8424786 -11.9453125 84.68359375 C-12.84120087 84.66281265 -13.73708923 84.64203156 -14.66012573 84.62062073 C-17.48168342 84.55598643 -20.30332251 84.49664707 -23.125 84.4375 C-25.05469543 84.39423256 -26.98438307 84.35061587 -28.9140625 84.30664062 C-33.60929467 84.20039536 -38.30460748 84.09889388 -43 84 C-43.13042334 80.83112269 -43.20822068 77.66294748 -43.27734375 74.4921875 C-43.31452515 73.60426514 -43.35170654 72.71634277 -43.39001465 71.80151367 C-43.52110912 63.76228355 -40.90574521 58.62172448 -35.80078125 52.53125 C-32.99569433 49.05745815 -30.61283775 45.40849905 -28.25 41.625 C-27.51586682 40.47687592 -26.78023947 39.32970558 -26.04296875 38.18359375 C-25.36878906 37.13300781 -24.69460937 36.08242187 -24 35 C-22.86004332 33.22537793 -21.71503626 31.4539781 -20.5625 29.6875 C-19.88380859 28.64142578 -19.88380859 28.64142578 -19.19140625 27.57421875 C-18 26 -18 26 -16 25 C-14.90287919 23.17809731 -13.86908033 21.31760845 -12.875 19.4375 C-12.33617187 18.42558594 -11.79734375 17.41367187 -11.2421875 16.37109375 C-10.83226562 15.58863281 -10.42234375 14.80617188 -10 14 C-9.34 14 -8.68 14 -8 14 C-7.79375 13.175 -7.5875 12.35 -7.375 11.5 C-6 8 -6 8 0 0 Z " fill="#E92E19" transform="translate(183,33)"/>
<path d="M0 0 C33.99 0 67.98 0 103 0 C96 12 96 12 92.625 16.3125 C88.83534186 22.29268081 88.83534186 22.29268081 89 36 C59.63 36 30.26 36 0 36 C0 24.12 0 12.24 0 0 Z " fill="#EFEFF3" transform="translate(50,74)"/>
<path d="M0 0 C29.37 0 58.74 0 89 0 C89 1.32 89 2.64 89 4 C80.09 4 71.18 4 62 4 C62.495 6.475 62.495 6.475 63 9 C62.34 8.67 61.68 8.34 61 8 C61 7.34 61 6.68 61 6 C58.36 6 55.72 6 53 6 C53 16.23 53 26.46 53 37 C55.31 37 57.62 37 60 37 C60 37.33 60 37.66 60 38 C57.36 38 54.72 38 52 38 C52 36.35 52 34.7 52 33 C51.52691406 33.3609375 51.05382812 33.721875 50.56640625 34.09375 C45.36632691 37.74292849 41.33525988 39.09228619 35 38 C30.39486893 36.15794757 28.51144595 33.18574325 26 29 C23.87961365 31.61514317 21.86908256 34.19637616 20 37 C15.87857829 38.37380724 12.28201602 39.00669913 8 38 C4.20944234 34.98159297 1.53280725 31.59842175 0 27 C-0.50521865 20.8110715 -0.78090481 15.21504112 3 10 C6.73733498 6.98936905 10.23443187 6.16432994 15 6 C19.57774829 7.29702868 21.44367756 8.08475985 23.9375 12.1875 C24.288125 13.115625 24.63875 14.04375 25 15 C25.38671875 14.51789063 25.7734375 14.03578125 26.171875 13.5390625 C26.69265625 12.90742187 27.2134375 12.27578125 27.75 11.625 C28.26046875 10.99851562 28.7709375 10.37203125 29.296875 9.7265625 C31.79328756 7.19579564 33.80112097 6.09924495 37.359375 5.8046875 C38.54273437 5.83949219 38.54273437 5.83949219 39.75 5.875 C40.54921875 5.89304687 41.3484375 5.91109375 42.171875 5.9296875 C42.77515625 5.95289062 43.3784375 5.97609375 44 6 C44 5.34 44 4.68 44 4 C29.48 4 14.96 4 0 4 C0 2.68 0 1.36 0 0 Z " fill="#F3F3F6" transform="translate(50,113)"/>
<path d="M0 0 C2.64 0 5.28 0 8 0 C10.3125 2.3359375 10.3125 2.3359375 12 5.375 C12.5775 6.37273437 13.155 7.37046875 13.75 8.3984375 C15 11 15 11 15 13 C15.66 13 16.32 13 17 13 C17 8.71 17 4.42 17 0 C31.36988265 -1.21578326 31.36988265 -1.21578326 35.10546875 1.5703125 C36.41426622 3.68855087 37.25576111 5.62694113 38 8 C38.433125 9.155 38.86625 10.31 39.3125 11.5 C39.539375 12.325 39.76625 13.15 40 14 C40.66 14 41.32 14 42 14 C42 9.71 42 5.42 42 1 C44.31 1 46.62 1 49 1 C49 10.9 49 20.8 49 31 C46.36 31 43.72 31 41 31 C38.6875 28.59375 38.6875 28.59375 37 25.5 C36.4225 24.4790625 35.845 23.458125 35.25 22.40625 C34.8375 21.6121875 34.425 20.818125 34 20 C33.67 23.96 33.34 27.92 33 32 C27.39 32 21.78 32 16 32 C12 24.25 12 24.25 12 22 C11.34 22 10.68 22 10 22 C9.34 20.68 8.68 19.36 8 18 C7.67 22.29 7.34 26.58 7 31 C4.69 31 2.38 31 0 31 C0 20.77 0 10.54 0 0 Z " fill="#E6E6ED" transform="translate(103,119)"/>
<path d="M0 0 C3.3 0 6.6 0 10 0 C10 10.23 10 20.46 10 31 C7.69 31 5.38 31 3 31 C2.67 26.05 2.34 21.1 2 16 C1.54625 17.381875 1.0925 18.76375 0.625 20.1875 C-0.47975443 23.50699909 -1.64632091 26.77199601 -3 30 C-4.65 29.67 -6.3 29.34 -8 29 C-8 27.68 -8 26.36 -8 25 C-8.66 25 -9.32 25 -10 25 C-10.66 22.69 -11.32 20.38 -12 18 C-12.33 22.29 -12.66 26.58 -13 31 C-15.31 31 -17.62 31 -20 31 C-20 21.1 -20 11.2 -20 1 C-16.7 1 -13.4 1 -10 1 C-8.74335022 3.90600261 -8 5.79604584 -8 9 C-7.34 9 -6.68 9 -6 9 C-5.67 9.99 -5.34 10.98 -5 12 C-4.54625 10.7625 -4.0925 9.525 -3.625 8.25 C-2.56368395 5.35550168 -1.39136272 2.78272544 0 0 Z " fill="#262C64" transform="translate(99,76)"/>
<path d="M0 0 C2.0625 0.4375 2.0625 0.4375 4 1 C4.33 2.32 4.66 3.64 5 5 C8.3 5.33 11.6 5.66 15 6 C15 4.35 15 2.7 15 1 C16.32 1 17.64 1 19 1 C19 8.59 19 16.18 19 24 C20.32 24 21.64 24 23 24 C23 31.92 23 39.84 23 48 C15.12228622 46.87461232 15.12228622 46.87461232 11.3125 44.125 C10.22388672 43.35542969 10.22388672 43.35542969 9.11328125 42.5703125 C7.72970542 41.54222103 6.35672591 40.49967571 4.99609375 39.44140625 C2.98097636 37.98626277 0.98538442 36.8929358 -1.25 35.8125 C-2.4875 35.214375 -3.725 34.61625 -5 34 C-5 30.7 -5 27.4 -5 24 C-4.18015625 23.95101562 -3.3603125 23.90203125 -2.515625 23.8515625 C-1.43796875 23.77679688 -0.3603125 23.70203125 0.75 23.625 C1.81734375 23.55539063 2.8846875 23.48578125 3.984375 23.4140625 C6.86719242 23.01823524 8.63153539 22.66170182 11 21 C12.08221364 19.20650224 12.08221364 19.20650224 12.6875 17.125 C12.91824219 16.44695312 13.14898437 15.76890625 13.38671875 15.0703125 C13.98137914 13.06286023 14.49220861 11.03116555 15 9 C9.555 8.505 9.555 8.505 4 8 C3.67 9.98 3.34 11.96 3 14 C2.01 14 1.02 14 0 14 C-0.99293628 11.02119115 -1.13406411 8.98398802 -1.125 5.875 C-1.12886719 4.54082031 -1.12886719 4.54082031 -1.1328125 3.1796875 C-1 1 -1 1 0 0 Z " fill="#E42E1B" transform="translate(186,128)"/>
<path d="M0 0 C1.625 2.0625 1.625 2.0625 2.625 5.0625 C3.285 4.7325 3.945 4.4025 4.625 4.0625 C4.625 9.0125 4.625 13.9625 4.625 19.0625 C3.965 19.0625 3.305 19.0625 2.625 19.0625 C1.25742962 21.04389735 0.12154964 23.11722212 -1.05859375 25.21484375 C-2.79769988 27.655785 -4.52568437 27.90284183 -7.390625 28.44140625 C-11.1562744 28.7508215 -13.44665005 28.80174162 -16.484375 26.3828125 C-21.59303469 20.61973773 -22.68049358 16.41762657 -22.58984375 8.79296875 C-22.30921826 5.22647391 -21.47521228 2.95934453 -19.375 0.0625 C-13.09126487 -4.73298207 -6.33962201 -5.17179691 0 0 Z " fill="#F0F0F4" transform="translate(72.375,122.9375)"/>
<path d="M0 0 C2.64 0 5.28 0 8 0 C9.00508801 1.78881736 10.00392736 3.58114696 11 5.375 C11.8353125 6.87160156 11.8353125 6.87160156 12.6875 8.3984375 C14 11 14 11 14 13 C14.66 13 15.32 13 16 13 C16 8.71 16 4.42 16 0 C18.31 0 20.62 0 23 0 C23 9.9 23 19.8 23 30 C20.36 30 17.72 30 15 30 C12.94140625 27.91796875 12.94140625 27.91796875 11.5625 25.1875 C11.08941406 24.29417969 10.61632812 23.40085938 10.12890625 22.48046875 C9 20 9 20 8 17 C7.34 16.67 6.68 16.34 6 16 C6 20.62 6 25.24 6 30 C4.02 30 2.04 30 0 30 C0 20.1 0 10.2 0 0 Z " fill="#F6F7F9" transform="translate(129,120)"/>
<path d="M0 0 C6.93 0 13.86 0 21 0 C21 2.31 21 4.62 21 7 C16.71 7 12.42 7 8 7 C8 8.32 8 9.64 8 11 C11.63 11 15.26 11 19 11 C19 13.31 19 15.62 19 18 C15.37 18 11.74 18 8 18 C8 19.65 8 21.3 8 23 C12.29 23 16.58 23 21 23 C21 25.31 21 27.62 21 30 C14.07 30 7.14 30 0 30 C0 20.1 0 10.2 0 0 Z " fill="#F6F6F9" transform="translate(153,120)"/>
<path d="M0 0 C29.37 0 58.74 0 89 0 C89 1.32 89 2.64 89 4 C80.09 4 71.18 4 62 4 C62.495 6.475 62.495 6.475 63 9 C62.34 8.67 61.68 8.34 61 8 C61 7.34 61 6.68 61 6 C58.36 6 55.72 6 53 6 C53 16.23 53 26.46 53 37 C55.31 37 57.62 37 60 37 C60 37.33 60 37.66 60 38 C57.36 38 54.72 38 52 38 C52 36.35 52 34.7 52 33 C50.35 33.66 48.7 34.32 47 35 C47.66 34.0925 48.32 33.185 49 32.25 C51.92064053 27.17512816 51.66632448 21.68700199 51 16 C49.57731578 11.47327749 47.68849029 9.91196602 44 7 C44 6.01 44 5.02 44 4 C29.48 4 14.96 4 0 4 C0 2.68 0 1.36 0 0 Z " fill="#8083A4" transform="translate(50,113)"/>
<path d="M0 0 C2.83595558 3.45632086 2.77878961 6.01329211 3 10.4375 C0.69 10.4375 -1.62 10.4375 -4 10.4375 C-4.66 9.1175 -5.32 7.7975 -6 6.4375 C-7.65 6.4375 -9.3 6.4375 -11 6.4375 C-12.16968953 8.77687907 -12.13364221 10.21119368 -12.125 12.8125 C-12.12757813 13.58335937 -12.13015625 14.35421875 -12.1328125 15.1484375 C-12.00389788 17.3703189 -11.61383717 19.30368508 -11 21.4375 C-8.55519921 21.24921228 -8.55519921 21.24921228 -6 20.4375 C-4.63979849 18.46991727 -4.63979849 18.46991727 -4 16.4375 C-1.69 16.4375 0.62 16.4375 3 16.4375 C3.3125 19.125 3.3125 19.125 3 22.4375 C0.43887151 25.56776816 -2.10923881 28.17872432 -6 29.4375 C-13.77777778 29.99305556 -13.77777778 29.99305556 -17 27.4375 C-21.67999567 21.45750554 -21.79651495 15.8519725 -21 8.4375 C-20.15681175 4.07522029 -18.96968568 1.19939589 -15.375 -1.625 C-9.75835644 -3.18517877 -5.16983611 -2.69262297 0 0 Z " fill="#F2F2F6" transform="translate(196,121.5625)"/>
<path d="M0 0 C2.31 0 4.62 0 7 0 C7 3.63 7 7.26 7 11 C10.16753702 8.88830865 10.95400354 7.6545879 12.6875 4.375 C13.12449219 3.55773437 13.56148437 2.74046875 14.01171875 1.8984375 C14.33785156 1.27195312 14.66398437 0.64546875 15 0 C17.64 0 20.28 0 23 0 C21.83043608 2.33912783 20.7065657 4.41485539 19.1875 6.5625 C17.36202696 11.84676408 19.23555204 15.85546499 21 21 C21.29003906 21.89460938 21.58007812 22.78921875 21.87890625 23.7109375 C22.56585801 25.81493466 23.27230696 27.90981786 24 30 C21.36 30 18.72 30 16 30 C15.32694982 28.39850114 14.66177773 26.79368971 14 25.1875 C13.62875 24.29417969 13.2575 23.40085937 12.875 22.48046875 C12 20 12 20 12 17 C11.34 17 10.68 17 10 17 C8.32889958 19.96178773 7.67317248 22.37071192 7.375 25.75 C7.26285156 26.94882813 7.26285156 26.94882813 7.1484375 28.171875 C7.09945312 28.77515625 7.05046875 29.3784375 7 30 C4.69 30 2.38 30 0 30 C0 20.1 0 10.2 0 0 Z " fill="#222861" transform="translate(112,77)"/>
<path d="M0 0 C0.99 1.485 0.99 1.485 2 3 C1.34644531 3.92619141 1.34644531 3.92619141 0.6796875 4.87109375 C-0.5762224 6.65709549 -1.81736663 8.45353396 -3.046875 10.2578125 C-5 13 -5 13 -6.765625 14.9296875 C-13.32046128 22.59820955 -12.01830639 33.44014114 -12 43 C-10.35 43 -8.7 43 -7 43 C-7 47.95 -7 52.9 -7 58 C-7.66 58 -8.32 58 -9 58 C-9.3196875 57.07316406 -9.639375 56.14632812 -9.96875 55.19140625 C-11.71337624 51.05682009 -13.0149882 48.37204015 -16 45 C-21.07518963 43.09501226 -26.68605047 43.61086324 -32 44 C-32 48.29 -32 52.58 -32 57 C-32.66 57 -33.32 57 -34 57 C-35.00732399 55.06629769 -36.00563288 53.12789694 -37 51.1875 C-37.556875 50.10855469 -38.11375 49.02960938 -38.6875 47.91796875 C-40 45 -40 45 -40 42 C-31.09 42 -22.18 42 -13 42 C-13 40.68 -13 39.36 -13 38 C-42.37 38 -71.74 38 -102 38 C-102 37.01 -102 36.02 -102 35 C-72.63 35 -43.26 35 -13 35 C-13 30.05 -13 25.1 -13 20 C-11.07340831 16.42875687 -9.4857017 14.04646738 -7 11 C-5.68601093 8.9936095 -4.39450535 6.97232833 -3.125 4.9375 C-2.52945313 3.99777344 -1.93390625 3.05804688 -1.3203125 2.08984375 C-0.66675781 1.05537109 -0.66675781 1.05537109 0 0 Z " fill="#3C3F72" transform="translate(152,75)"/>
<path d="M0 0 C7.59 0 15.18 0 23 0 C23 2.31 23 4.62 23 7 C20.69 7 18.38 7 16 7 C16 14.92 16 22.84 16 31 C13.03 31 10.06 31 7 31 C7 23.08 7 15.16 7 7 C4.69 7 2.38 7 0 7 C0 4.69 0 2.38 0 0 Z " fill="#F2F3F6" transform="translate(200,120)"/>
<path d="M0 0 C4.35989633 0.08767616 7.43917637 1.37583819 11.3125 3.3125 C11.3125 2.3225 11.3125 1.3325 11.3125 0.3125 C19.69261029 0.15857961 27.96145793 0.62978707 36.3125 1.3125 C36.3125 1.6425 36.3125 1.9725 36.3125 2.3125 C28.7225 2.3125 21.1325 2.3125 13.3125 2.3125 C13.3125 4.6225 13.3125 6.9325 13.3125 9.3125 C15.6225 9.3125 17.9325 9.3125 20.3125 9.3125 C19.9825 17.5625 19.6525 25.8125 19.3125 34.3125 C18.9825 34.3125 18.6525 34.3125 18.3125 34.3125 C18.3125 26.7225 18.3125 19.1325 18.3125 11.3125 C16.9925 11.3125 15.6725 11.3125 14.3125 11.3125 C14.3125 12.9625 14.3125 14.6125 14.3125 16.3125 C11.0125 16.3125 7.7125 16.3125 4.3125 16.3125 C3.6525 14.6625 2.9925 13.0125 2.3125 11.3125 C1.3225 11.3125 0.3325 11.3125 -0.6875 11.3125 C-0.6875 15.6025 -0.6875 19.8925 -0.6875 24.3125 C0.3025 24.3125 1.2925 24.3125 2.3125 24.3125 C2.6425 22.3325 2.9725 20.3525 3.3125 18.3125 C4.77073212 18.2854957 6.22910675 18.26610213 7.6875 18.25 C8.49960938 18.23839844 9.31171875 18.22679687 10.1484375 18.21484375 C12.3125 18.3125 12.3125 18.3125 14.3125 19.3125 C13.55705376 28.22676564 13.55705376 28.22676564 10.3125 32.3125 C6.91132773 34.54379297 4.06722253 34.52455919 0.0625 34.4375 C-1.01515625 34.41945312 -2.0928125 34.40140625 -3.203125 34.3828125 C-4.02296875 34.35960937 -4.8428125 34.33640625 -5.6875 34.3125 C-5.3575 37.9425 -5.0275 41.5725 -4.6875 45.3125 C-5.3475 45.3125 -6.0075 45.3125 -6.6875 45.3125 C-6.6875 41.3525 -6.6875 37.3925 -6.6875 33.3125 C-5.33205078 33.11333984 -5.33205078 33.11333984 -3.94921875 32.91015625 C-2.76972656 32.73355469 -1.59023437 32.55695313 -0.375 32.375 C0.79675781 32.20097656 1.96851563 32.02695313 3.17578125 31.84765625 C6.32891403 31.39156969 6.32891403 31.39156969 9.3125 30.3125 C11.38991505 27.19637743 11.81274456 23.9773732 12.3125 20.3125 C10.0025 20.3125 7.6925 20.3125 5.3125 20.3125 C4.3225 22.7875 4.3225 22.7875 3.3125 25.3125 C1.6625 25.3125 0.0125 25.3125 -1.6875 25.3125 C-3.39504834 22.33784237 -3.96067355 20.17389168 -3.9375 16.75 C-3.94265625 15.98558594 -3.9478125 15.22117188 -3.953125 14.43359375 C-3.6875 12.3125 -3.6875 12.3125 -1.6875 9.3125 C0.9375 9.125 0.9375 9.125 3.3125 9.3125 C3.9725 10.9625 4.6325 12.6125 5.3125 14.3125 C7.6225 14.3125 9.9325 14.3125 12.3125 14.3125 C10.84768453 7.98308306 10.84768453 7.98308306 6.6875 3.25 C2.46511422 2.07711506 -1.33799363 2.05152962 -5.6875 2.3125 C-3.6875 0.3125 -3.6875 0.3125 0 0 Z " fill="#693958" transform="translate(186.6875,117.6875)"/>
<path d="M0 0 C1.98 0 3.96 0 6 0 C6.11638426 4.06225821 6.18731373 8.1240863 6.25 12.1875 C6.30027344 13.91323242 6.30027344 13.91323242 6.3515625 15.67382812 C6.36445312 16.78564453 6.37734375 17.89746094 6.390625 19.04296875 C6.41157227 20.06414795 6.43251953 21.08532715 6.45410156 22.13745117 C5.87923962 25.7612449 4.55719777 27.41709 2 30 C-0.578125 30.48828125 -0.578125 30.48828125 -3.25 30.3125 C-4.14203125 30.26738281 -5.0340625 30.22226563 -5.953125 30.17578125 C-6.62859375 30.11777344 -7.3040625 30.05976562 -8 30 C-8 27.69 -8 25.38 -8 23 C-5.36 23 -2.72 23 0 23 C0 15.41 0 7.82 0 0 Z " fill="#1E235E" transform="translate(61,77)"/>
<path d="M0 0 C2.31 0 4.62 0 7 0 C7 9.9 7 19.8 7 30 C4.69 30 2.38 30 0 30 C0 20.1 0 10.2 0 0 Z " fill="#2A2F67" transform="translate(70,77)"/>
<path d="M0 0 C2.375 -0.1875 2.375 -0.1875 5 0 C7 3 7 3 7 6 C9.64 6 12.28 6 15 6 C15 7.65 15 9.3 15 11 C12.36 10.67 9.72 10.34 7 10 C6.67 11.65 6.34 13.3 6 15 C4.35 15.33 2.7 15.66 1 16 C-1.25414782 12.61877827 -1.24544447 11.3935272 -1.1875 7.4375 C-1.18105469 6.46683594 -1.17460938 5.49617187 -1.16796875 4.49609375 C-1 2 -1 2 0 0 Z " fill="#212760" transform="translate(60,127)"/>
<path d="M0 0 C0.94875 0.04125 1.8975 0.0825 2.875 0.125 C5.14381984 4.66263968 5.34929537 8.14489858 4.875 13.125 C3.125 15.6875 3.125 15.6875 0.875 17.125 C-1.25 17.125 -1.25 17.125 -3.125 16.125 C-5.07065457 13.04783001 -5.39653343 10.60684908 -5.375 7 C-5.38273437 5.69675781 -5.38273437 5.69675781 -5.390625 4.3671875 C-4.94305665 0.5891841 -3.66806988 0.1467228 0 0 Z " fill="#30356B" transform="translate(89.125,126.875)"/>
<path d="M0 0 C1.084021 0.00523682 2.16804199 0.01047363 3.28491211 0.01586914 C5.03964844 0.02070312 5.03964844 0.02070312 6.82983398 0.02563477 C8.0615332 0.03401367 9.29323242 0.04239258 10.56225586 0.05102539 C12.41560547 0.05779297 12.41560547 0.05779297 14.30639648 0.06469727 C17.37089703 0.07652931 20.43530307 0.09301366 23.49975586 0.11352539 C23.49975586 0.77352539 23.49975586 1.43352539 23.49975586 2.11352539 C22.91967773 2.13930664 22.33959961 2.16508789 21.74194336 2.19165039 C16.26018452 2.58966588 12.83701274 3.48233358 8.49975586 7.11352539 C6.1769817 9.72266409 6.1769817 9.72266409 4.49975586 12.11352539 C1.49975586 7.36352539 1.49975586 7.36352539 1.49975586 5.11352539 C0.08436869 4.77480026 -1.33262377 4.44277915 -2.75024414 4.11352539 C-3.53915039 3.92790039 -4.32805664 3.74227539 -5.14086914 3.55102539 C-7.75580416 2.99197711 -7.75580416 2.99197711 -11.50024414 3.11352539 C-11.50024414 2.45352539 -11.50024414 1.79352539 -11.50024414 1.11352539 C-10.20086914 1.13415039 -8.90149414 1.15477539 -7.56274414 1.17602539 C-6.20858781 1.19751994 -4.85268331 1.18500738 -3.50024414 1.11352539 C-2.50024414 0.11352539 -2.50024414 0.11352539 0 0 Z " fill="#262B64" transform="translate(70.500244140625,116.886474609375)"/>
<path d="M0 0 C5.61 0 11.22 0 17 0 C17 0.33 17 0.66 17 1 C14.69 1 12.38 1 10 1 C10 10.9 10 20.8 10 31 C9.34 30.01 8.68 29.02 8 28 C6.02 28.99 6.02 28.99 4 30 C4.32145996 29.46084961 4.64291992 28.92169922 4.97412109 28.36621094 C6.21476951 25.50462968 6.31872533 23.25497256 6.4140625 20.140625 C6.47207031 18.46806641 6.47207031 18.46806641 6.53125 16.76171875 C6.5621875 15.60285156 6.593125 14.44398437 6.625 13.25 C6.66367188 12.07566406 6.70234375 10.90132812 6.7421875 9.69140625 C6.8363982 6.79442732 6.92201602 3.89745374 7 1 C5.02 1 3.04 1 1 1 C1 8.59 1 16.18 1 24 C0.67 24 0.34 24 0 24 C0 16.08 0 8.16 0 0 Z " fill="#ABADC3" transform="translate(60,76)"/>
<path d="M0 0 C4.59225513 9.41002278 4.59225513 9.41002278 4 14 C6.97 14 9.94 14 13 14 C13 14.33 13 14.66 13 15 C10.14576808 15.02718316 7.29179985 15.04692705 4.4375 15.0625 C3.23770508 15.07506836 3.23770508 15.07506836 2.01367188 15.08789062 C-2.77163104 15.10742247 -7.28145051 14.80437018 -12 14 C-12 13.67 -12 13.34 -12 13 C-9.69 13 -7.38 13 -5 13 C-5.03480469 12.39671875 -5.06960937 11.7934375 -5.10546875 11.171875 C-5.32770154 4.6107165 -5.32770154 4.6107165 -3.625 1.4375 C-2 0 -2 0 0 0 Z " fill="#F4F4F7" transform="translate(124,94)"/>
<path d="M0 0 C8.25 0 16.5 0 25 0 C24.67 0.99 24.34 1.98 24 3 C18.72 2.67 13.44 2.34 8 2 C8 6.29 8 10.58 8 15 C7.34 15 6.68 15 6 15 C4.99267601 13.06629769 3.99436712 11.12789694 3 9.1875 C2.443125 8.10855469 1.88625 7.02960938 1.3125 5.91796875 C0 3 0 3 0 0 Z " fill="#242A63" transform="translate(112,117)"/>
<path d="M0 0 C4.62 0 9.24 0 14 0 C13.67 4.95 13.34 9.9 13 15 C9.04 15 5.08 15 1 15 C1 14.01 1 13.02 1 12 C5.455 11.505 5.455 11.505 10 11 C10.33 8.69 10.66 6.38 11 4 C7.37 4 3.74 4 0 4 C0 2.68 0 1.36 0 0 Z " fill="#2A2F67" transform="translate(161,127)"/>
<path d="M0 0 C2.29633824 3.44450737 2.54016485 5.93812283 3 10 C3.66 10 4.32 10 5 10 C5.33 11.32 5.66 12.64 6 14 C7.32 14.33 8.64 14.66 10 15 C10.33 13.35 10.66 11.7 11 10 C11.625 11.8125 11.625 11.8125 12 14 C10 17 10 17 8.296875 17.71484375 C5.21411291 18.09756761 2.34153457 17.84073811 -0.75 17.5625 C-1.92046875 17.46066406 -3.0909375 17.35882813 -4.296875 17.25390625 C-5.18890625 17.17011719 -6.0809375 17.08632812 -7 17 C-7 16.67 -7 16.34 -7 16 C-4.69 16 -2.38 16 0 16 C0 10.72 0 5.44 0 0 Z " fill="#DADBE5" transform="translate(86,91)"/>
<path d="M0 0 C4.35989633 0.08767616 7.43917637 1.37583819 11.3125 3.3125 C11.3125 2.3225 11.3125 1.3325 11.3125 0.3125 C19.69261029 0.15857961 27.96145793 0.62978707 36.3125 1.3125 C36.3125 1.6425 36.3125 1.9725 36.3125 2.3125 C28.7225 2.3125 21.1325 2.3125 13.3125 2.3125 C13.3125 4.6225 13.3125 6.9325 13.3125 9.3125 C15.6225 9.3125 17.9325 9.3125 20.3125 9.3125 C20.3125 9.6425 20.3125 9.9725 20.3125 10.3125 C15.04587722 10.83916228 15.04587722 10.83916228 12.3125 10.3125 C10.125 7.4375 10.125 7.4375 8.3125 4.3125 C4.00644401 1.60583623 -0.76964635 2.11964299 -5.6875 2.3125 C-3.6875 0.3125 -3.6875 0.3125 0 0 Z " fill="#67557A" transform="translate(186.6875,117.6875)"/>
<path d="M0 0 C1.45823212 -0.0270043 2.91660675 -0.04639787 4.375 -0.0625 C5.18710938 -0.07410156 5.99921875 -0.08570313 6.8359375 -0.09765625 C9 0 9 0 11 1 C10.24455376 9.91426564 10.24455376 9.91426564 7 14 C3.59882773 16.23129297 0.75472253 16.21205919 -3.25 16.125 C-4.32765625 16.10695312 -5.4053125 16.08890625 -6.515625 16.0703125 C-7.33546875 16.04710937 -8.1553125 16.02390625 -9 16 C-8.67 19.63 -8.34 23.26 -8 27 C-8.66 27 -9.32 27 -10 27 C-10 23.04 -10 19.08 -10 15 C-9.09636719 14.86722656 -8.19273437 14.73445312 -7.26171875 14.59765625 C-6.08222656 14.42105469 -4.90273437 14.24445313 -3.6875 14.0625 C-2.51574219 13.88847656 -1.34398437 13.71445313 -0.13671875 13.53515625 C3.01641403 13.07906969 3.01641403 13.07906969 6 12 C8.07741505 8.88387743 8.50024456 5.6648732 9 2 C4.545 2.495 4.545 2.495 0 3 C0 2.01 0 1.02 0 0 Z " fill="#58365C" transform="translate(190,136)"/>
<path d="M0 0 C0.66 0 1.32 0 2 0 C2 4.29 2 8.58 2 13 C-1.3 13 -4.6 13 -8 13 C-6.85605098 11.01974361 -5.70978896 9.04082322 -4.5625 7.0625 C-3.92441406 5.96035156 -3.28632813 4.85820313 -2.62890625 3.72265625 C-1 1 -1 1 0 0 Z " fill="#512046" transform="translate(179,79)"/>
<path d="M0 0 C2.0625 0.4375 2.0625 0.4375 4 1 C4.0825 1.61875 4.165 2.2375 4.25 2.875 C4.81258459 5.18437567 4.81258459 5.18437567 7.0625 6.25 C7.701875 6.4975 8.34125 6.745 9 7 C7.35 7.33 5.7 7.66 4 8 C3.67 9.98 3.34 11.96 3 14 C2.01 14 1.02 14 0 14 C-0.99293628 11.02119115 -1.13406411 8.98398802 -1.125 5.875 C-1.12757813 4.98554688 -1.13015625 4.09609375 -1.1328125 3.1796875 C-1 1 -1 1 0 0 Z " fill="#DE2D1D" transform="translate(186,128)"/>
<path d="M0 0 C0.33 0 0.66 0 1 0 C1 2.64 1 5.28 1 8 C4.63 8 8.26 8 12 8 C12 7.34 12 6.68 12 6 C13.98 5.01 15.96 4.02 18 3 C18 4.32 18 5.64 18 7 C18.65226562 6.98839844 19.30453125 6.97679688 19.9765625 6.96484375 C24.7761914 6.91529006 29.27784685 7.00586249 34 8 C34 8.33 34 8.66 34 9 C22.78 9 11.56 9 0 9 C0 6.03 0 3.06 0 0 Z " fill="#FAFAFB" transform="translate(51,100)"/>
<path d="M0 0 C0.33 0 0.66 0 1 0 C2.28230001 9.9378251 2.8871229 20.11507053 1 30 C0.67 30 0.34 30 0 30 C0 27.69 0 25.38 0 23 C-4.29 23 -8.58 23 -13 23 C-13 21.35 -13 19.7 -13 18 C-9.7 18 -6.4 18 -3 18 C-3 18.33 -3 18.66 -3 19 C-5.97 19 -8.94 19 -12 19 C-12 19.99 -12 20.98 -12 22 C-8.04 22 -4.08 22 0 22 C0 14.74 0 7.48 0 0 Z " fill="#636790" transform="translate(174,120)"/>
<path d="M0 0 C0.33 0 0.66 0 1 0 C1 9.9 1 19.8 1 30 C3.31 30 5.62 30 8 30 C8 30.33 8 30.66 8 31 C5.36 31 2.72 31 0 31 C0 29.35 0 27.7 0 26 C-1.65 26.66 -3.3 27.32 -5 28 C-4.01 26.6696875 -4.01 26.6696875 -3 25.3125 C-0.3400421 20.72057267 -0.75247787 16.35488495 -0.92578125 11.1796875 C-1.01553925 7.33426578 -0.59481343 3.79193564 0 0 Z " fill="#707499" transform="translate(102,120)"/>
<path d="M0 0 C0.66 0.99 1.32 1.98 2 3 C1.56429687 3.61746094 1.12859375 4.23492187 0.6796875 4.87109375 C-0.21363281 6.14146484 -0.21363281 6.14146484 -1.125 7.4375 C-1.76050781 8.34113281 -2.39601562 9.24476562 -3.05078125 10.17578125 C-5.36322615 13.52627757 -7.56474851 16.94088942 -9.73828125 20.3828125 C-10.36283203 21.18332031 -10.36283203 21.18332031 -11 22 C-11.66 22 -12.32 22 -13 22 C-11.81217337 18.63449123 -10.31379332 15.82173559 -8.28515625 12.890625 C-6.54977655 10.3376652 -4.90400939 7.73131783 -3.25 5.125 C-2.63640625 4.15820312 -2.0228125 3.19140625 -1.390625 2.1953125 C-0.93171875 1.47085938 -0.4728125 0.74640625 0 0 Z " fill="#4F446F" transform="translate(152,75)"/>
<path d="M0 0 C1.00109515 3.31070838 1.10356134 6.30084769 1.0625 9.75 C1.05347656 10.73484375 1.04445313 11.7196875 1.03515625 12.734375 C1.02355469 13.48203125 1.01195313 14.2296875 1 15 C0.01 15 -0.98 15 -2 15 C-2 14.01 -2 13.02 -2 12 C-2.99 11.67 -3.98 11.34 -5 11 C-3.68 11 -2.36 11 -1 11 C-1 9.35 -1 7.7 -1 6 C-3.64 6 -6.28 6 -9 6 C-8.67 5.01 -8.34 4.02 -8 3 C-8 3.66 -8 4.32 -8 5 C-6.02 5 -4.04 5 -2 5 C-1.855625 4.360625 -1.71125 3.72125 -1.5625 3.0625 C-1 1 -1 1 0 0 Z " fill="#9DA0B9" transform="translate(76,127)"/>
<path d="M0 0 C0.33 1.32 0.66 2.64 1 4 C-2.96 4 -6.92 4 -11 4 C-11 3.01 -11 2.02 -11 1 C-5.555 0.505 -5.555 0.505 0 0 Z " fill="#181E5A" transform="translate(173,138)"/>
<path d="M0 0 C0 2.64 0 5.28 0 8 C-2.31 8 -4.62 8 -7 8 C-7 7.01 -7 6.02 -7 5 C-1.53488372 0 -1.53488372 0 0 0 Z " fill="#1B1B56" transform="translate(180,83)"/>
<path d="M0 0 C1.5 1.375 1.5 1.375 3 3 C3 3.66 3 4.32 3 5 C5.31 5 7.62 5 10 5 C10.33 4.34 10.66 3.68 11 3 C11.33 4.32 11.66 5.64 12 7 C8.7 7 5.4 7 2 7 C1.34 4.69 0.68 2.38 0 0 Z " fill="#655377" transform="translate(189,127)"/>
<path d="M0 0 C1.67542976 0.28604898 3.34385343 0.61781233 5 1 C4.67 1.99 4.34 2.98 4 4 C3.34 4 2.68 4 2 4 C1.67 5.32 1.34 6.64 1 8 C0.34 8 -0.32 8 -1 8 C-1.04241723 5.66705225 -1.04092937 3.33297433 -1 1 C-0.67 0.67 -0.34 0.34 0 0 Z " fill="#1F245E" transform="translate(176,118)"/>
<path d="M0 0 C0.66 0 1.32 0 2 0 C2 4.29 2 8.58 2 13 C1.67 12.01 1.34 11.02 1 10 C0.34 10 -0.32 10 -1 10 C-1.33 8.35 -1.66 6.7 -2 5 C-1.67 5 -1.34 5 -1 5 C-0.67 3.35 -0.34 1.7 0 0 Z " fill="#A8A9BF" transform="translate(137,97)"/>
<path d="M0 0 C0.33 0 0.66 0 1 0 C1 5.61 1 11.22 1 17 C0.67 17 0.34 17 0 17 C-0.33 14.69 -0.66 12.38 -1 10 C-1.99 10.495 -1.99 10.495 -3 11 C-2.01 7.37 -1.02 3.74 0 0 Z " fill="#E0E0E8" transform="translate(101,90)"/>
<path d="M0 0 C1.32 0.33 2.64 0.66 4 1 C4.0825 1.61875 4.165 2.2375 4.25 2.875 C4.81258459 5.18437567 4.81258459 5.18437567 7.0625 6.25 C7.701875 6.4975 8.34125 6.745 9 7 C7.35 7.33 5.7 7.66 4 8 C3.67 9.32 3.34 10.64 3 12 C2.92652344 10.95199219 2.92652344 10.95199219 2.8515625 9.8828125 C2.73941406 8.51769531 2.73941406 8.51769531 2.625 7.125 C2.55539063 6.22007812 2.48578125 5.31515625 2.4140625 4.3828125 C2.20431868 1.82058097 2.20431868 1.82058097 0 0 Z " fill="#B2292A" transform="translate(186,128)"/>
<path d="M0 0 C-0.57344937 2.86724686 -0.8614515 3.8614515 -3 6 C-3.40047444 8.32275177 -3.7397104 10.65739357 -4 13 C-4.33 13 -4.66 13 -5 13 C-5.46882399 4.87371744 -5.46882399 4.87371744 -3.625 1.4375 C-2 0 -2 0 0 0 Z " fill="#C3C4D4" transform="translate(124,94)"/>
<path d="M0 0 C0.66 0.99 1.32 1.98 2 3 C1.01 4.32 0.02 5.64 -1 7 C-1.99 6.67 -2.98 6.34 -4 6 C-2.68 4.02 -1.36 2.04 0 0 Z " fill="#635278" transform="translate(152,75)"/>
</svg>
